<svg width="155" height="50" viewBox="0 0 155 50" fill="none" xmlns="http://www.w3.org/2000/svg">
<rect x="1" y="1" width="153" height="48" rx="24" stroke="url(#paint0_linear_13_3524)" stroke-width="2"/>
<path d="M24.0462 32L20.3516 18.9091H22.902L25.2607 28.5291H25.3821L27.9006 18.9091H30.2209L32.7457 28.5355H32.8608L35.2195 18.9091H37.7699L34.0753 32H31.7358L29.1151 22.8146H29.0128L26.3857 32H24.0462ZM42.5927 32.1918C41.6339 32.1918 40.8029 31.9808 40.0998 31.5589C39.3967 31.1371 38.8512 30.5469 38.4634 29.7884C38.0799 29.0298 37.8881 28.1435 37.8881 27.1293C37.8881 26.1151 38.0799 25.2266 38.4634 24.4638C38.8512 23.701 39.3967 23.1087 40.0998 22.6868C40.8029 22.2649 41.6339 22.054 42.5927 22.054C43.5515 22.054 44.3825 22.2649 45.0856 22.6868C45.7887 23.1087 46.332 23.701 46.7156 24.4638C47.1033 25.2266 47.2972 26.1151 47.2972 27.1293C47.2972 28.1435 47.1033 29.0298 46.7156 29.7884C46.332 30.5469 45.7887 31.1371 45.0856 31.5589C44.3825 31.9808 43.5515 32.1918 42.5927 32.1918ZM42.6055 30.3381C43.1254 30.3381 43.56 30.1953 43.9094 29.9098C44.2589 29.62 44.5188 29.2322 44.6893 28.7464C44.864 28.2607 44.9513 27.7195 44.9513 27.1229C44.9513 26.522 44.864 25.9787 44.6893 25.4929C44.5188 25.0028 44.2589 24.6129 43.9094 24.3232C43.56 24.0334 43.1254 23.8885 42.6055 23.8885C42.0728 23.8885 41.6296 24.0334 41.2759 24.3232C40.9265 24.6129 40.6644 25.0028 40.4897 25.4929C40.3192 25.9787 40.234 26.522 40.234 27.1229C40.234 27.7195 40.3192 28.2607 40.4897 28.7464C40.6644 29.2322 40.9265 29.62 41.2759 29.9098C41.6296 30.1953 42.0728 30.3381 42.6055 30.3381ZM49.2612 32V22.1818H51.5048V23.8182H51.6071C51.786 23.2514 52.0929 22.8146 52.5275 22.5078C52.9664 22.1967 53.4672 22.0412 54.0297 22.0412C54.1575 22.0412 54.3002 22.0476 54.4579 22.0604C54.6199 22.0689 54.7541 22.0838 54.8606 22.1051V24.2337C54.7626 24.1996 54.6071 24.1697 54.394 24.1442C54.1852 24.1143 53.9828 24.0994 53.7868 24.0994C53.3649 24.0994 52.9856 24.1911 52.649 24.3743C52.3166 24.5533 52.0545 24.8026 51.8627 25.1222C51.671 25.4418 51.5751 25.8104 51.5751 26.228V32H49.2612ZM58.5073 28.919L58.5009 26.1257H58.8716L62.4 22.1818H65.1039L60.7637 27.0142H60.2843L58.5073 28.919ZM56.3979 32V18.9091H58.7118V32H56.3979ZM62.5598 32L59.3638 27.532L60.9235 25.902L65.3276 32H62.5598ZM73.968 32L70.2734 18.9091H72.8239L75.1825 28.5291H75.304L77.8224 18.9091H80.1428L82.6676 28.5355H82.7827L85.1413 18.9091H87.6918L83.9972 32H81.6577L79.0369 22.8146H78.9347L76.3075 32H73.968ZM89.2338 32V22.1818H91.5478V32H89.2338ZM90.3972 20.7884C90.0307 20.7884 89.7154 20.6669 89.4512 20.424C89.187 20.1768 89.0549 19.8807 89.0549 19.5355C89.0549 19.1861 89.187 18.8899 89.4512 18.647C89.7154 18.3999 90.0307 18.2763 90.3972 18.2763C90.7679 18.2763 91.0833 18.3999 91.3432 18.647C91.6074 18.8899 91.7395 19.1861 91.7395 19.5355C91.7395 19.8807 91.6074 20.1768 91.3432 20.424C91.0833 20.6669 90.7679 20.7884 90.3972 20.7884ZM98.8299 22.1818V23.9716H93.1857V22.1818H98.8299ZM94.5792 19.8295H96.8931V29.0469C96.8931 29.358 96.94 29.5966 97.0337 29.7628C97.1317 29.9247 97.2596 30.0355 97.4173 30.0952C97.5749 30.1548 97.7496 30.1847 97.9414 30.1847C98.0863 30.1847 98.2184 30.174 98.3377 30.1527C98.4613 30.1314 98.555 30.1122 98.619 30.0952L99.0089 31.9041C98.8853 31.9467 98.7085 31.9936 98.4783 32.0447C98.2525 32.0959 97.9755 32.1257 97.6474 32.1342C97.0678 32.1513 96.5458 32.0639 96.0813 31.8722C95.6168 31.6761 95.2482 31.3736 94.9755 30.9645C94.707 30.5554 94.5749 30.044 94.5792 29.4304V19.8295ZM103.29 26.2472V32H100.976V18.9091H103.239V23.8501H103.354C103.584 23.2962 103.94 22.8594 104.421 22.5398C104.907 22.2159 105.525 22.054 106.275 22.054C106.957 22.054 107.551 22.1967 108.058 22.4822C108.566 22.7678 108.958 23.1854 109.235 23.7351C109.516 24.2848 109.656 24.956 109.656 25.7486V32H107.343V26.1065C107.343 25.446 107.172 24.9325 106.831 24.5661C106.494 24.1953 106.021 24.0099 105.412 24.0099C105.003 24.0099 104.637 24.0994 104.313 24.2784C103.993 24.4531 103.742 24.7067 103.558 25.0391C103.379 25.3714 103.29 25.7741 103.29 26.2472ZM124.834 18.9091H127.206V27.4616C127.206 28.3991 126.984 29.2237 126.541 29.9354C126.102 30.647 125.484 31.2031 124.687 31.6037C123.89 32 122.959 32.1982 121.894 32.1982C120.824 32.1982 119.891 32 119.094 31.6037C118.297 31.2031 117.68 30.647 117.241 29.9354C116.802 29.2237 116.582 28.3991 116.582 27.4616V18.9091H118.954V27.2635C118.954 27.8089 119.073 28.2947 119.312 28.7209C119.555 29.147 119.895 29.4815 120.334 29.7244C120.773 29.9631 121.293 30.0824 121.894 30.0824C122.495 30.0824 123.015 29.9631 123.454 29.7244C123.897 29.4815 124.238 29.147 124.476 28.7209C124.715 28.2947 124.834 27.8089 124.834 27.2635V18.9091ZM137.441 24.777L135.332 25.0071C135.272 24.794 135.168 24.5938 135.018 24.4062C134.874 24.2188 134.678 24.0675 134.43 23.9524C134.183 23.8374 133.881 23.7798 133.523 23.7798C133.041 23.7798 132.636 23.8842 132.308 24.093C131.984 24.3018 131.825 24.5724 131.829 24.9048C131.825 25.1903 131.929 25.4226 132.142 25.6016C132.359 25.7805 132.717 25.9276 133.216 26.0426L134.891 26.4006C135.82 26.6009 136.51 26.9183 136.962 27.353C137.418 27.7876 137.648 28.3565 137.652 29.0597C137.648 29.6776 137.467 30.223 137.109 30.696C136.755 31.1648 136.263 31.5312 135.632 31.7955C135.001 32.0597 134.277 32.1918 133.459 32.1918C132.257 32.1918 131.29 31.9403 130.557 31.4375C129.824 30.9304 129.387 30.2251 129.246 29.3217L131.503 29.1044C131.605 29.5476 131.822 29.8821 132.155 30.108C132.487 30.3338 132.92 30.4467 133.452 30.4467C134.002 30.4467 134.443 30.3338 134.776 30.108C135.112 29.8821 135.281 29.603 135.281 29.2706C135.281 28.9893 135.172 28.7571 134.955 28.5739C134.741 28.3906 134.409 28.25 133.957 28.152L132.283 27.8004C131.341 27.6044 130.644 27.2741 130.192 26.8097C129.741 26.3409 129.517 25.7486 129.521 25.0327C129.517 24.4276 129.681 23.9034 130.013 23.4602C130.35 23.0128 130.817 22.6676 131.413 22.4247C132.014 22.1776 132.707 22.054 133.491 22.054C134.641 22.054 135.547 22.299 136.207 22.7891C136.872 23.2791 137.283 23.9418 137.441 24.777Z" fill="white"/>
<defs>
<linearGradient id="paint0_linear_13_3524" x1="77.5" y1="0" x2="77.5" y2="50" gradientUnits="userSpaceOnUse">
<stop stop-color="#21D277"/>
<stop offset="1" stop-color="#068AB7"/>
</linearGradient>
</defs>
</svg>
