<svg width="352" height="221" viewBox="0 0 352 221" fill="none" xmlns="http://www.w3.org/2000/svg">
<rect width="352" height="221" fill="#6A6A6A"/>
<g id="Jaggasar Landing Page" clip-path="url(#clip0_0_1)">
<rect width="1440" height="6426" transform="translate(-128 -1590)" fill="#060606"/>
<g id="Ellipse 13" filter="url(#filter0_f_0_1)">
<ellipse cx="-56.8954" cy="-344.331" rx="180.35" ry="160.555" transform="rotate(89.825 -56.8954 -344.331)" fill="#BE14CD" fill-opacity="0.3"/>
</g>
<g id="Group 20">
<g id="Ellipse 8" filter="url(#filter1_f_0_1)">
<ellipse cx="398" cy="443.5" rx="110" ry="145.5" fill="#BE14CD" fill-opacity="0.5"/>
</g>
<g id="Ellipse 8_2" filter="url(#filter2_f_0_1)">
<ellipse cx="36" cy="278.5" rx="110" ry="145.5" fill="#23D971" fill-opacity="0.5"/>
</g>
</g>
<g id="Frame 1618871312">
<g id="Frame 1618871311">
<g id="Frame 1618871309">
<g id="Group 1321314511">
<g id="Group 21">
<g id="Rectangle 512" filter="url(#filter3_b_0_1)">
<rect x="-19" y="-177" width="392" height="416" rx="18" fill="url(#paint0_linear_0_1)"/>
<rect x="-18.5" y="-176.5" width="391" height="415" rx="17.5" stroke="url(#paint1_linear_0_1)" stroke-opacity="0.4"/>
</g>
<g id="Rectangle 516" filter="url(#filter4_b_0_1)">
<rect width="352" height="221" rx="20" fill="url(#paint2_linear_0_1)"/>
</g>
</g>
<g id="Icon" clip-path="url(#clip1_0_1)">
<g id="svg-1599460143_8497" clip-path="url(#clip2_0_1)">
<path id="Vector" d="M279.7 91.0859H63.4664C59.6448 91.0859 56.5469 94.1839 56.5469 98.0054V130.873C56.5469 134.694 59.6448 137.792 63.4664 137.792H279.7C283.522 137.792 286.62 134.694 286.62 130.873V98.0054C286.62 94.1839 283.522 91.0859 279.7 91.0859Z" fill="url(#paint3_linear_0_1)"/>
<path id="Vector_2" d="M155.309 119.628V109.941H157.205V119.628H155.309ZM156.526 119.628V117.898H161.467V119.628H156.526ZM165.731 119.794C165.03 119.794 164.403 119.642 163.849 119.337C163.312 119.032 162.868 118.587 162.562 118.05C162.257 117.506 162.105 116.878 162.105 116.168C162.105 115.458 162.257 114.83 162.562 114.286C162.866 113.741 163.29 113.318 163.835 113.013C164.379 112.699 165.002 112.543 165.703 112.543C166.413 112.543 167.041 112.699 167.585 113.013C168.121 113.309 168.563 113.751 168.859 114.286C169.163 114.831 169.315 115.458 169.315 116.168C169.315 116.878 169.163 117.506 168.859 118.05C168.561 118.588 168.12 119.034 167.585 119.337C167.05 119.642 166.432 119.794 165.731 119.794ZM165.731 118.106C166.072 118.106 166.372 118.023 166.631 117.857C166.888 117.691 167.087 117.465 167.226 117.179C167.373 116.884 167.447 116.547 167.447 116.168C167.447 115.79 167.373 115.458 167.226 115.172C167.087 114.887 166.871 114.647 166.603 114.48C166.334 114.311 166.021 114.224 165.703 114.231C165.371 114.231 165.071 114.314 164.804 114.48C164.541 114.65 164.331 114.89 164.195 115.172C164.047 115.457 163.974 115.79 163.974 116.168C163.974 116.546 164.047 116.884 164.195 117.179C164.342 117.464 164.55 117.691 164.818 117.857C165.092 118.025 165.409 118.111 165.731 118.106ZM173.634 122.576C173.166 122.58 172.698 122.543 172.236 122.465C171.885 122.407 171.541 122.31 171.212 122.174C170.975 122.076 170.748 121.956 170.534 121.815L171.254 120.348C171.383 120.421 171.553 120.504 171.766 120.597C171.978 120.698 172.231 120.781 172.527 120.846C172.822 120.919 173.163 120.957 173.551 120.957C173.919 120.957 174.243 120.883 174.52 120.735C174.805 120.597 175.027 120.375 175.184 120.071C175.35 119.776 175.433 119.397 175.433 118.936V112.709H177.26V118.881C177.26 119.656 177.112 120.32 176.817 120.874C176.539 121.418 176.099 121.863 175.558 122.147C175.022 122.433 174.381 122.576 173.634 122.576ZM173.274 119.434C172.638 119.434 172.084 119.296 171.613 119.019C171.151 118.742 170.777 118.339 170.534 117.857C170.275 117.359 170.147 116.768 170.147 116.085C170.147 115.366 170.275 114.743 170.534 114.217C170.792 113.682 171.152 113.272 171.613 112.985C172.084 112.69 172.638 112.543 173.274 112.543C173.828 112.543 174.307 112.69 174.713 112.985C175.119 113.271 175.433 113.682 175.654 114.217C175.876 114.752 175.987 115.389 175.987 116.127C175.987 116.791 175.876 117.372 175.654 117.871C175.433 118.369 175.119 118.756 174.713 119.033C174.307 119.301 173.828 119.434 173.274 119.434ZM173.8 117.898C174.113 117.898 174.386 117.82 174.617 117.663C174.857 117.495 175.049 117.266 175.17 116.999C175.299 116.713 175.364 116.39 175.364 116.03C175.364 115.661 175.295 115.338 175.156 115.061C175.037 114.797 174.845 114.571 174.603 114.411C174.361 114.251 174.076 114.169 173.786 114.176C173.463 114.176 173.177 114.253 172.928 114.411C172.678 114.569 172.476 114.795 172.347 115.061C172.209 115.338 172.134 115.661 172.126 116.03C172.134 116.39 172.209 116.713 172.347 116.999C172.485 117.275 172.679 117.497 172.928 117.663C173.191 117.821 173.493 117.903 173.8 117.898ZM178.942 119.628V112.709H180.769V119.628H178.942ZM179.855 111.588C179.719 111.588 179.584 111.561 179.458 111.509C179.332 111.457 179.218 111.38 179.122 111.283C179.021 111.187 178.94 111.071 178.886 110.942C178.831 110.814 178.803 110.676 178.804 110.536C178.804 110.25 178.91 110.006 179.122 109.802C179.216 109.702 179.33 109.623 179.456 109.568C179.582 109.513 179.718 109.485 179.855 109.485C179.993 109.485 180.129 109.513 180.255 109.568C180.381 109.623 180.495 109.702 180.589 109.802C180.801 110.006 180.907 110.25 180.907 110.536C180.907 110.821 180.801 111.071 180.589 111.283C180.494 111.381 180.38 111.459 180.254 111.511C180.128 111.564 179.992 111.59 179.855 111.588ZM182.454 119.628V112.709H184.17L184.28 113.982V119.628H182.454ZM187.034 119.628V116.085L188.861 115.67V119.628H187.034ZM187.034 116.085C187.034 115.615 186.979 115.251 186.868 114.992C186.766 114.733 186.619 114.549 186.425 114.439C186.221 114.316 185.986 114.253 185.747 114.259C185.277 114.25 184.912 114.393 184.654 114.688C184.405 114.983 184.28 115.421 184.28 116.002H183.672C183.672 115.265 183.777 114.642 183.99 114.134C184.211 113.618 184.516 113.226 184.903 112.958C185.291 112.681 185.747 112.543 186.273 112.543C187.112 112.543 187.754 112.801 188.197 113.318C188.648 113.825 188.87 114.609 188.861 115.67L187.034 116.085Z" fill="white"/>
<path id="Vector_3" d="M30.1641 41.3516H325.107V187.525H30.1641V41.3516Z" stroke="white" stroke-opacity="0.2"/>
<path id="Vector_4" d="M325.108 190.121C327.019 190.121 328.568 188.572 328.568 186.661C328.568 184.75 327.019 183.201 325.108 183.201C323.197 183.201 321.648 184.75 321.648 186.661C321.648 188.572 323.197 190.121 325.108 190.121Z" fill="white" fill-opacity="0.2" stroke="#C1C1C1"/>
<path id="Vector_5" d="M325.108 117.466C327.019 117.466 328.568 115.917 328.568 114.007C328.568 112.096 327.019 110.547 325.108 110.547C323.197 110.547 321.648 112.096 321.648 114.007C321.648 115.917 323.197 117.466 325.108 117.466Z" fill="white" fill-opacity="0.2" stroke="#C1C1C1"/>
<path id="Vector_6" d="M325.108 43.0816C327.019 43.0816 328.568 41.5326 328.568 39.6218C328.568 37.7111 327.019 36.1621 325.108 36.1621C323.197 36.1621 321.648 37.7111 321.648 39.6218C321.648 41.5326 323.197 43.0816 325.108 43.0816Z" fill="white" fill-opacity="0.2" stroke="#C1C1C1"/>
<path id="Vector_7" d="M30.1668 190.121C32.0775 190.121 33.6265 188.572 33.6265 186.661C33.6265 184.75 32.0775 183.201 30.1668 183.201C28.256 183.201 26.707 184.75 26.707 186.661C26.707 188.572 28.256 190.121 30.1668 190.121Z" fill="white" fill-opacity="0.2" stroke="#C1C1C1"/>
<path id="Vector_8" d="M177.206 190.985C179.117 190.985 180.666 189.436 180.666 187.525C180.666 185.614 179.117 184.065 177.206 184.065C175.295 184.065 173.746 185.614 173.746 187.525C173.746 189.436 175.295 190.985 177.206 190.985Z" fill="white" fill-opacity="0.2" stroke="#C1C1C1"/>
<path id="Vector_9" d="M177.206 43.9468C179.117 43.9468 180.666 42.3978 180.666 40.4871C180.666 38.5763 179.117 37.0273 177.206 37.0273C175.295 37.0273 173.746 38.5763 173.746 40.4871C173.746 42.3978 175.295 43.9468 177.206 43.9468Z" fill="white" fill-opacity="0.2" stroke="#C1C1C1"/>
<path id="Vector_10" d="M30.1668 117.466C32.0775 117.466 33.6265 115.917 33.6265 114.007C33.6265 112.096 32.0775 110.547 30.1668 110.547C28.256 110.547 26.707 112.096 26.707 114.007C26.707 115.917 28.256 117.466 30.1668 117.466Z" fill="white" fill-opacity="0.2" stroke="#C1C1C1"/>
<path id="Vector_11" d="M30.1668 43.0816C32.0775 43.0816 33.6265 41.5326 33.6265 39.6218C33.6265 37.7111 32.0775 36.1621 30.1668 36.1621C28.256 36.1621 26.707 37.7111 26.707 39.6218C26.707 41.5326 28.256 43.0816 30.1668 43.0816Z" fill="white" fill-opacity="0.2" stroke="#C1C1C1"/>
<g id="Group" filter="url(#filter5_d_0_1)">
<path id="Vector_12" d="M299.094 183.201C299.094 190.807 292.928 196.972 285.322 196.972C277.716 196.972 271.551 190.807 271.551 183.201C271.551 175.595 277.716 169.43 285.322 169.43C292.928 169.43 299.094 175.595 299.094 183.201Z" fill="#27CE24" stroke="white"/>
<path id="Vector_13" d="M285.32 199.635C294.397 199.635 301.754 192.277 301.754 183.201C301.754 174.125 294.397 166.768 285.32 166.768C276.244 166.768 268.887 174.125 268.887 183.201C268.887 192.277 276.244 199.635 285.32 199.635Z" stroke="white" stroke-width="5"/>
</g>
<g id="Group_2" filter="url(#filter6_d_0_1)">
<path id="Vector_14" d="M274.012 183.201C274.012 190.807 267.846 196.972 260.24 196.972C252.634 196.972 246.469 190.807 246.469 183.201C246.469 175.595 252.634 169.43 260.24 169.43C267.846 169.43 274.012 175.595 274.012 183.201Z" fill="#6030E1" stroke="white"/>
<path id="Vector_15" d="M260.238 199.635C269.315 199.635 276.672 192.277 276.672 183.201C276.672 174.125 269.315 166.768 260.238 166.768C251.162 166.768 243.805 174.125 243.805 183.201C243.805 192.277 251.162 199.635 260.238 199.635Z" stroke="white" stroke-width="5"/>
</g>
<g id="Group_3" filter="url(#filter7_d_0_1)">
<path id="Vector_16" d="M248.93 183.201C248.93 190.807 242.764 196.972 235.158 196.972C227.552 196.972 221.387 190.807 221.387 183.201C221.387 175.595 227.552 169.43 235.158 169.43C242.764 169.43 248.93 175.595 248.93 183.201Z" fill="#FAA742" stroke="white"/>
<path id="Vector_17" d="M235.156 199.635C244.233 199.635 251.59 192.277 251.59 183.201C251.59 174.125 244.233 166.768 235.156 166.768C226.08 166.768 218.723 174.125 218.723 183.201C218.723 192.277 226.08 199.635 235.156 199.635Z" stroke="white" stroke-width="5"/>
</g>
<g id="Group_4" filter="url(#filter8_d_0_1)">
<path id="Vector_18" d="M223.844 183.201C223.844 190.807 217.678 196.972 210.072 196.972C202.466 196.972 196.301 190.807 196.301 183.201C196.301 175.595 202.466 169.43 210.072 169.43C217.678 169.43 223.844 175.595 223.844 183.201Z" fill="#1D9BF0" stroke="white"/>
<path id="Vector_19" d="M210.07 199.635C219.147 199.635 226.504 192.277 226.504 183.201C226.504 174.125 219.147 166.768 210.07 166.768C200.994 166.768 193.637 174.125 193.637 183.201C193.637 192.277 200.994 199.635 210.07 199.635Z" stroke="white" stroke-width="5"/>
</g>
<g id="Group_5" filter="url(#filter9_d_0_1)">
<g id="Vector_20" filter="url(#filter10_b_0_1)">
<path d="M45.0552 56.5471L24.4825 59.3184C20.6952 59.8286 18.0386 63.3124 18.5488 67.0997L21.3201 87.6723C21.8302 91.4596 25.314 94.1162 29.1014 93.6061L49.674 90.8348C53.4613 90.3246 56.118 86.8408 55.6078 83.0535L52.8365 62.4809C52.3263 58.6936 48.8425 56.037 45.0552 56.5471Z" fill="white" fill-opacity="0.3"/>
<path d="M24.5493 59.8139L45.1219 57.0427C48.6356 56.5693 51.8676 59.034 52.341 62.5477L55.1123 83.1202C55.5856 86.6339 53.1209 89.8659 49.6072 90.3392L29.0346 93.1105C25.521 93.5838 22.2889 91.1192 21.8156 87.6055L19.0443 67.033C18.571 63.5193 21.0356 60.2873 24.5493 59.8139Z" stroke="white" stroke-opacity="0.2"/>
</g>
</g>
<path id="Vector_21" d="M34.7133 75.889L31.9524 71.3178L30.5261 76.4538L34.7133 75.889ZM27.4651 81.4765L27.4219 81.1582C27.8829 81.0431 28.209 80.8243 28.401 80.5008C28.5982 80.1756 28.894 79.3263 29.2884 77.9527L31.9195 68.7896L32.275 68.7412L38.1557 78.1257C38.5475 78.7502 38.8433 79.1316 39.0431 79.2674C39.2473 79.398 39.5664 79.4638 40.0015 79.4638L40.0447 79.7821L35.4121 80.4057L35.3689 80.0874C35.8965 79.9698 36.2338 79.8686 36.3783 79.7847C36.5236 79.6956 36.5781 79.5209 36.5435 79.2631C36.5322 79.1766 36.4821 79.0296 36.3938 78.8185C36.2963 78.592 36.1818 78.3731 36.0513 78.1638L35.0679 76.5697L30.3021 77.2115C30.1034 77.9532 29.9139 78.6974 29.7338 79.4439C29.6794 79.7086 29.6621 79.9153 29.6819 80.0649C29.7226 80.3633 29.8748 80.5527 30.1386 80.634C30.303 80.6825 30.5996 80.6946 31.0312 80.6721L31.0745 80.9904L27.4651 81.4765ZM44.5675 74.3166C43.9153 74.6262 43.3843 74.9436 42.976 75.268C42.1906 75.8933 41.8429 76.5308 41.9294 77.1795C42.0004 77.701 42.2296 78.0617 42.6188 78.2607C42.8713 78.3904 43.1403 78.4362 43.424 78.3973C43.8196 78.3429 44.1925 78.1803 44.5017 77.9277C44.8347 77.6673 44.9792 77.3732 44.9351 77.0454L44.5675 74.3166ZM40.427 77.9856C40.3146 77.1535 40.6519 76.4019 41.4356 75.729C41.9346 75.3112 42.9596 74.6971 44.5095 73.8867L44.4109 73.155C44.3322 72.5694 44.218 72.1689 44.0684 71.9562C43.815 71.5989 43.3713 71.4632 42.7364 71.5479C42.4346 71.5886 42.1569 71.7019 41.9052 71.8878C41.6535 72.0799 41.5454 72.3108 41.5817 72.5798C41.5904 72.649 41.6215 72.7649 41.6734 72.9275C41.7253 73.0832 41.7538 73.1852 41.7599 73.2311C41.8032 73.5528 41.7236 73.7916 41.5212 73.9472C41.3966 74.0425 41.2482 74.1018 41.0922 74.1185C40.8258 74.1548 40.6095 74.0986 40.4452 73.9516C40.2873 73.8124 40.1844 73.6212 40.1554 73.4127C40.101 73.0105 40.299 72.5573 40.7505 72.0522C41.2063 71.5419 41.9294 71.2184 42.9189 71.0852C44.0693 70.9304 44.897 71.1872 45.4039 71.855C45.6763 72.2217 45.8632 72.7839 45.9661 73.5416L46.4306 76.9927C46.4755 77.3265 46.53 77.5523 46.5949 77.6725C46.7013 77.8861 46.8769 77.9761 47.1199 77.9432C47.2359 77.9316 47.3482 77.8956 47.4494 77.8377C47.5333 77.7858 47.6743 77.6673 47.8724 77.4831L47.9329 77.9303C47.7846 78.1666 47.6028 78.3801 47.3932 78.5643C47.0905 78.8272 46.7679 78.9811 46.4245 79.0279C46.0214 79.0823 45.7109 78.995 45.493 78.7675C45.2743 78.5251 45.1302 78.2248 45.0778 77.9026C44.6782 78.3428 44.3305 78.6758 44.0355 78.9024C43.5382 79.2847 43.0461 79.5088 42.56 79.5745C42.0689 79.648 41.5685 79.5266 41.1657 79.2363C40.7453 78.9362 40.4997 78.5193 40.427 77.9856Z" fill="white"/>
<path id="Vector_22" d="M313.864 56.4883H250.723C250.007 56.4883 249.426 57.0691 249.426 57.7857C249.426 58.5022 250.007 59.0831 250.723 59.0831H313.864C314.58 59.0831 315.161 58.5022 315.161 57.7857C315.161 57.0691 314.58 56.4883 313.864 56.4883Z" fill="#1D9BF0"/>
<path id="Vector_23" d="M265.86 62.9756C268.965 62.9756 271.482 60.4585 271.482 57.3535C271.482 54.2485 268.965 51.7314 265.86 51.7314C262.755 51.7314 260.238 54.2485 260.238 57.3535C260.238 60.4585 262.755 62.9756 265.86 62.9756Z" fill="#1E2221" stroke="#E6E9EB"/>
</g>
</g>
</g>
</g>
</g>
</g>
</g>
<defs>
<filter id="filter0_f_0_1" x="-580.572" y="-887.802" width="1047.35" height="1086.94" filterUnits="userSpaceOnUse" color-interpolation-filters="sRGB">
<feFlood flood-opacity="0" result="BackgroundImageFix"/>
<feBlend mode="normal" in="SourceGraphic" in2="BackgroundImageFix" result="shape"/>
<feGaussianBlur stdDeviation="181.561" result="effect1_foregroundBlur_0_1"/>
</filter>
<filter id="filter1_f_0_1" x="-12" y="-2" width="820" height="891" filterUnits="userSpaceOnUse" color-interpolation-filters="sRGB">
<feFlood flood-opacity="0" result="BackgroundImageFix"/>
<feBlend mode="normal" in="SourceGraphic" in2="BackgroundImageFix" result="shape"/>
<feGaussianBlur stdDeviation="150" result="effect1_foregroundBlur_0_1"/>
</filter>
<filter id="filter2_f_0_1" x="-374" y="-167" width="820" height="891" filterUnits="userSpaceOnUse" color-interpolation-filters="sRGB">
<feFlood flood-opacity="0" result="BackgroundImageFix"/>
<feBlend mode="normal" in="SourceGraphic" in2="BackgroundImageFix" result="shape"/>
<feGaussianBlur stdDeviation="150" result="effect1_foregroundBlur_0_1"/>
</filter>
<filter id="filter3_b_0_1" x="-39" y="-197" width="432" height="456" filterUnits="userSpaceOnUse" color-interpolation-filters="sRGB">
<feFlood flood-opacity="0" result="BackgroundImageFix"/>
<feGaussianBlur in="BackgroundImageFix" stdDeviation="10"/>
<feComposite in2="SourceAlpha" operator="in" result="effect1_backgroundBlur_0_1"/>
<feBlend mode="normal" in="SourceGraphic" in2="effect1_backgroundBlur_0_1" result="shape"/>
</filter>
<filter id="filter4_b_0_1" x="-24" y="-24" width="400" height="269" filterUnits="userSpaceOnUse" color-interpolation-filters="sRGB">
<feFlood flood-opacity="0" result="BackgroundImageFix"/>
<feGaussianBlur in="BackgroundImageFix" stdDeviation="12"/>
<feComposite in2="SourceAlpha" operator="in" result="effect1_backgroundBlur_0_1"/>
<feBlend mode="normal" in="SourceGraphic" in2="effect1_backgroundBlur_0_1" result="shape"/>
</filter>
<filter id="filter5_d_0_1" x="241.387" y="143.268" width="87.8675" height="87.8674" filterUnits="userSpaceOnUse" color-interpolation-filters="sRGB">
<feFlood flood-opacity="0" result="BackgroundImageFix"/>
<feColorMatrix in="SourceAlpha" type="matrix" values="0 0 0 0 0 0 0 0 0 0 0 0 0 0 0 0 0 0 127 0" result="hardAlpha"/>
<feOffset dy="4"/>
<feGaussianBlur stdDeviation="12.5"/>
<feComposite in2="hardAlpha" operator="out"/>
<feColorMatrix type="matrix" values="0 0 0 0 0 0 0 0 0 0 0 0 0 0 0 0 0 0 0.25 0"/>
<feBlend mode="normal" in2="BackgroundImageFix" result="effect1_dropShadow_0_1"/>
<feBlend mode="normal" in="SourceGraphic" in2="effect1_dropShadow_0_1" result="shape"/>
</filter>
<filter id="filter6_d_0_1" x="216.305" y="143.268" width="87.8675" height="87.8674" filterUnits="userSpaceOnUse" color-interpolation-filters="sRGB">
<feFlood flood-opacity="0" result="BackgroundImageFix"/>
<feColorMatrix in="SourceAlpha" type="matrix" values="0 0 0 0 0 0 0 0 0 0 0 0 0 0 0 0 0 0 127 0" result="hardAlpha"/>
<feOffset dy="4"/>
<feGaussianBlur stdDeviation="12.5"/>
<feComposite in2="hardAlpha" operator="out"/>
<feColorMatrix type="matrix" values="0 0 0 0 0 0 0 0 0 0 0 0 0 0 0 0 0 0 0.25 0"/>
<feBlend mode="normal" in2="BackgroundImageFix" result="effect1_dropShadow_0_1"/>
<feBlend mode="normal" in="SourceGraphic" in2="effect1_dropShadow_0_1" result="shape"/>
</filter>
<filter id="filter7_d_0_1" x="191.223" y="143.268" width="87.8675" height="87.8674" filterUnits="userSpaceOnUse" color-interpolation-filters="sRGB">
<feFlood flood-opacity="0" result="BackgroundImageFix"/>
<feColorMatrix in="SourceAlpha" type="matrix" values="0 0 0 0 0 0 0 0 0 0 0 0 0 0 0 0 0 0 127 0" result="hardAlpha"/>
<feOffset dy="4"/>
<feGaussianBlur stdDeviation="12.5"/>
<feComposite in2="hardAlpha" operator="out"/>
<feColorMatrix type="matrix" values="0 0 0 0 0 0 0 0 0 0 0 0 0 0 0 0 0 0 0.25 0"/>
<feBlend mode="normal" in2="BackgroundImageFix" result="effect1_dropShadow_0_1"/>
<feBlend mode="normal" in="SourceGraphic" in2="effect1_dropShadow_0_1" result="shape"/>
</filter>
<filter id="filter8_d_0_1" x="166.137" y="143.268" width="87.8675" height="87.8674" filterUnits="userSpaceOnUse" color-interpolation-filters="sRGB">
<feFlood flood-opacity="0" result="BackgroundImageFix"/>
<feColorMatrix in="SourceAlpha" type="matrix" values="0 0 0 0 0 0 0 0 0 0 0 0 0 0 0 0 0 0 127 0" result="hardAlpha"/>
<feOffset dy="4"/>
<feGaussianBlur stdDeviation="12.5"/>
<feComposite in2="hardAlpha" operator="out"/>
<feColorMatrix type="matrix" values="0 0 0 0 0 0 0 0 0 0 0 0 0 0 0 0 0 0 0.25 0"/>
<feBlend mode="normal" in2="BackgroundImageFix" result="effect1_dropShadow_0_1"/>
<feBlend mode="normal" in="SourceGraphic" in2="effect1_dropShadow_0_1" result="shape"/>
</filter>
<filter id="filter9_d_0_1" x="-6.51399" y="31.4844" width="87.1845" height="87.1844" filterUnits="userSpaceOnUse" color-interpolation-filters="sRGB">
<feFlood flood-opacity="0" result="BackgroundImageFix"/>
<feColorMatrix in="SourceAlpha" type="matrix" values="0 0 0 0 0 0 0 0 0 0 0 0 0 0 0 0 0 0 127 0" result="hardAlpha"/>
<feOffset/>
<feGaussianBlur stdDeviation="12.5"/>
<feComposite in2="hardAlpha" operator="out"/>
<feColorMatrix type="matrix" values="0 0 0 0 0 0 0 0 0 0 0 0 0 0 0 0 0 0 0.25 0"/>
<feBlend mode="normal" in2="BackgroundImageFix" result="effect1_dropShadow_0_1"/>
<feBlend mode="normal" in="SourceGraphic" in2="effect1_dropShadow_0_1" result="shape"/>
</filter>
<filter id="filter10_b_0_1" x="-15.514" y="22.4844" width="105.185" height="105.184" filterUnits="userSpaceOnUse" color-interpolation-filters="sRGB">
<feFlood flood-opacity="0" result="BackgroundImageFix"/>
<feGaussianBlur in="BackgroundImageFix" stdDeviation="17"/>
<feComposite in2="SourceAlpha" operator="in" result="effect1_backgroundBlur_0_1"/>
<feBlend mode="normal" in="SourceGraphic" in2="effect1_backgroundBlur_0_1" result="shape"/>
</filter>
<linearGradient id="paint0_linear_0_1" x1="177" y1="-177" x2="177" y2="239" gradientUnits="userSpaceOnUse">
<stop stop-color="white" stop-opacity="0.05"/>
<stop offset="1" stop-color="white" stop-opacity="0"/>
</linearGradient>
<linearGradient id="paint1_linear_0_1" x1="177" y1="-177" x2="177" y2="239" gradientUnits="userSpaceOnUse">
<stop stop-color="white"/>
<stop offset="1" stop-color="white" stop-opacity="0"/>
</linearGradient>
<linearGradient id="paint2_linear_0_1" x1="-4.17867e-07" y1="12.7325" x2="368.421" y2="157.939" gradientUnits="userSpaceOnUse">
<stop stop-color="white" stop-opacity="0.1"/>
<stop offset="1" stop-color="white" stop-opacity="0.05"/>
</linearGradient>
<linearGradient id="paint3_linear_0_1" x1="66" y1="91" x2="269.402" y2="163.519" gradientUnits="userSpaceOnUse">
<stop stop-color="#BE14CD"/>
<stop offset="0.9999" stop-color="#078CB5"/>
</linearGradient>
<clipPath id="clip0_0_1">
<rect width="1440" height="6426" fill="white" transform="translate(-128 -1590)"/>
</clipPath>
<clipPath id="clip1_0_1">
<rect width="333" height="192.88" fill="white" transform="translate(-4 34)"/>
</clipPath>
<clipPath id="clip2_0_1">
<rect width="333" height="192.88" fill="white" transform="translate(-4 34)"/>
</clipPath>
</defs>
</svg>
