<svg width="48" height="48" viewBox="0 0 48 48" fill="none" xmlns="http://www.w3.org/2000/svg">
<circle cx="24" cy="24" r="23.5" fill="url(#paint0_linear_1_247)" stroke="white"/>
<path d="M23.6217 8C19.3824 8 18.8493 8.01953 17.1836 8.09373C15.518 8.17184 14.3834 8.4335 13.3895 8.82014C12.3464 9.21132 11.4019 9.82657 10.6225 10.6225C9.82657 11.4019 9.21132 12.3464 8.82014 13.3895C8.4335 14.3815 8.16989 15.518 8.09373 17.1778C8.01953 18.8474 8 19.3785 8 23.6237C8 27.865 8.01953 28.3961 8.09373 30.0618C8.17184 31.7255 8.4335 32.8601 8.82014 33.854C9.22045 34.8811 9.75354 35.752 10.6225 36.621C11.4895 37.49 12.3604 38.025 13.3876 38.4234C14.3834 38.81 15.516 39.0736 17.1797 39.1498C18.8474 39.224 19.3785 39.2435 23.6217 39.2435C27.865 39.2435 28.3942 39.224 30.0618 39.1498C31.7236 39.0717 32.862 38.81 33.8559 38.4234C34.8983 38.0319 35.8422 37.4167 36.621 36.621C37.49 35.752 38.023 34.8811 38.4234 33.854C38.808 32.8601 39.0717 31.7255 39.1498 30.0618C39.224 28.3961 39.2435 27.865 39.2435 23.6217C39.2435 19.3785 39.224 18.8474 39.1498 17.1797C39.0717 15.518 38.808 14.3815 38.4234 13.3895C38.0322 12.3464 37.4169 11.4019 36.621 10.6225C35.8416 9.82657 34.897 9.21132 33.854 8.82014C32.8581 8.4335 31.7216 8.16989 30.0599 8.09373C28.3922 8.01953 27.8631 8 23.6178 8H23.6217ZM22.2217 10.8158H23.6237C27.7947 10.8158 28.2887 10.8295 29.9349 10.9056C31.458 10.974 32.286 11.2298 32.8366 11.4426C33.565 11.7258 34.0864 12.0656 34.6331 12.6123C35.1799 13.1591 35.5177 13.6785 35.8009 14.4088C36.0157 14.9575 36.2695 15.7855 36.3379 17.3086C36.414 18.9548 36.4296 19.4488 36.4296 23.6178C36.4296 27.7869 36.414 28.2829 36.3379 29.929C36.2695 31.4522 36.0137 32.2782 35.8009 32.8288C35.5486 33.5062 35.1491 34.1192 34.6312 34.6234C34.0844 35.1701 33.565 35.5079 32.8347 35.7911C32.2879 36.0059 31.46 36.2597 29.9349 36.33C28.2887 36.4042 27.7947 36.4218 23.6237 36.4218C19.4527 36.4218 18.9567 36.4042 17.3106 36.33C15.7874 36.2597 14.9614 36.0059 14.4108 35.7911C13.7329 35.5397 13.1192 35.1408 12.6143 34.6234C12.0954 34.1188 11.6952 33.5051 11.4426 32.8269C11.2298 32.2782 10.974 31.4502 10.9056 29.9271C10.8314 28.2809 10.8158 27.7869 10.8158 23.6139C10.8158 19.441 10.8314 18.9508 10.9056 17.3047C10.9759 15.7816 11.2298 14.9536 11.4446 14.403C11.7277 13.6746 12.0675 13.1532 12.6143 12.6065C13.161 12.0597 13.6805 11.7219 14.4108 11.4387C14.9614 11.2239 15.7874 10.9701 17.3106 10.8998C18.7517 10.8334 19.3101 10.8139 22.2217 10.8119V10.8158ZM31.9618 13.409C31.7156 13.409 31.4719 13.4575 31.2444 13.5517C31.017 13.6459 30.8103 13.784 30.6363 13.9581C30.4622 14.1322 30.3241 14.3388 30.2299 14.5663C30.1357 14.7937 30.0872 15.0375 30.0872 15.2836C30.0872 15.5298 30.1357 15.7736 30.2299 16.001C30.3241 16.2285 30.4622 16.4351 30.6363 16.6092C30.8103 16.7833 31.017 16.9213 31.2444 17.0156C31.4719 17.1098 31.7156 17.1583 31.9618 17.1583C32.459 17.1583 32.9358 16.9607 33.2874 16.6092C33.6389 16.2576 33.8364 15.7808 33.8364 15.2836C33.8364 14.7865 33.6389 14.3096 33.2874 13.9581C32.9358 13.6065 32.459 13.409 31.9618 13.409ZM23.6237 15.6C22.5596 15.5834 21.5028 15.7786 20.5149 16.1744C19.527 16.5701 18.6277 17.1584 17.8693 17.905C17.111 18.6516 16.5087 19.5417 16.0976 20.5233C15.6865 21.5049 15.4748 22.5585 15.4748 23.6227C15.4748 24.6869 15.6865 25.7405 16.0976 26.7222C16.5087 27.7038 17.111 28.5938 17.8693 29.3404C18.6277 30.0871 19.527 30.6754 20.5149 31.0711C21.5028 31.4668 22.5596 31.6621 23.6237 31.6455C25.7298 31.6126 27.7385 30.7529 29.2162 29.2519C30.694 27.7509 31.5223 25.7291 31.5223 23.6227C31.5223 21.5164 30.694 19.4945 29.2162 17.9935C27.7385 16.4925 25.7298 15.6328 23.6237 15.6ZM23.6237 18.4138C24.3076 18.4138 24.9848 18.5486 25.6167 18.8103C26.2485 19.072 26.8226 19.4556 27.3062 19.9392C27.7898 20.4228 28.1735 20.9969 28.4352 21.6288C28.6969 22.2606 28.8316 22.9378 28.8316 23.6217C28.8316 24.3057 28.6969 24.9829 28.4352 25.6147C28.1735 26.2466 27.7898 26.8207 27.3062 27.3043C26.8226 27.7879 26.2485 28.1715 25.6167 28.4332C24.9848 28.6949 24.3076 28.8296 23.6237 28.8296C22.2425 28.8296 20.9178 28.281 19.9412 27.3043C18.9645 26.3276 18.4158 25.003 18.4158 23.6217C18.4158 22.2405 18.9645 20.9159 19.9412 19.9392C20.9178 18.9625 22.2425 18.4138 23.6237 18.4138Z" fill="white"/>
<defs>
<linearGradient id="paint0_linear_1_247" x1="24" y1="0" x2="24.6154" y2="54.1538" gradientUnits="userSpaceOnUse">
<stop stop-color="#017DC3"/>
<stop offset="1" stop-color="#24DB6F"/>
</linearGradient>
</defs>
</svg>
