<svg width="48" height="48" viewBox="0 0 48 48" fill="none" xmlns="http://www.w3.org/2000/svg">
<circle cx="24" cy="24" r="23.5" fill="url(#paint0_linear_1_239)" stroke="white"/>
<path d="M24.5 13C25.7398 13 27.0114 13.0316 28.2439 13.0834L29.6997 13.1524L31.0932 13.2343L32.3982 13.322L33.59 13.414C34.8835 13.5121 36.1006 14.0594 37.0273 14.9594C37.954 15.8594 38.5308 17.0545 38.6564 18.3346L38.7143 18.9455L38.8231 20.2536C38.9246 21.6092 39 23.0869 39 24.5C39 25.9131 38.9246 27.3908 38.8231 28.7464L38.7143 30.0545C38.6955 30.2644 38.6767 30.4671 38.6564 30.6654C38.5308 31.9457 37.9537 33.141 37.0268 34.0411C36.0998 34.9411 34.8823 35.4882 33.5886 35.586L32.3996 35.6766L31.0946 35.7657L29.6997 35.8476L28.2439 35.9166C26.9967 35.9704 25.7484 35.9982 24.5 36C23.2516 35.9982 22.0033 35.9704 20.7561 35.9166L19.3003 35.8476L17.9069 35.7657L16.6019 35.6766L15.41 35.586C14.1165 35.4879 12.8994 34.9406 11.9727 34.0406C11.046 33.1406 10.4692 31.9455 10.3436 30.6654L10.2857 30.0545L10.1769 28.7464C10.066 27.3335 10.007 25.9171 10 24.5C10 23.0869 10.0754 21.6092 10.1769 20.2536L10.2857 18.9455C10.3045 18.7356 10.3233 18.5329 10.3436 18.3346C10.4691 17.0548 11.0458 15.8598 11.9721 14.9598C12.8985 14.0598 14.1153 13.5125 15.4085 13.414L16.599 13.322L17.904 13.2343L19.2989 13.1524L20.7547 13.0834C22.0024 13.0297 23.2511 13.0019 24.5 13ZM24.5 15.875C23.3038 15.875 22.0727 15.9066 20.875 15.9555L19.4569 16.0231L18.0954 16.1021L16.8165 16.1884L15.6449 16.2789C15.0291 16.3223 14.4487 16.5803 14.0065 17.0074C13.5643 17.4344 13.2889 18.0029 13.2292 18.612C13.0595 20.3499 12.9 22.5134 12.9 24.5C12.9 26.4866 13.0595 28.6501 13.2292 30.388C13.3524 31.6415 14.3558 32.6161 15.6449 32.7211L16.8165 32.8102L18.0954 32.8964L19.4569 32.9769L20.875 33.0445C22.0727 33.0934 23.3038 33.125 24.5 33.125C25.6963 33.125 26.9273 33.0934 28.125 33.0445L29.5431 32.9769L30.9046 32.8979L32.1835 32.8116L33.3552 32.7211C33.9709 32.6777 34.5513 32.4197 34.9935 31.9926C35.4357 31.5656 35.7111 30.9971 35.7709 30.388C35.9405 28.6501 36.1 26.4866 36.1 24.5C36.1 22.5134 35.9405 20.3499 35.7709 18.612C35.7111 18.0029 35.4357 17.4344 34.9935 17.0074C34.5513 16.5803 33.9709 16.3223 33.3552 16.2789L32.1835 16.1898L30.9046 16.1036L29.5431 16.0231L28.125 15.9555C26.9174 15.904 25.7088 15.8772 24.5 15.875ZM21.6 21.0141C21.5999 20.8736 21.6344 20.7352 21.7006 20.6109C21.7667 20.4867 21.8625 20.3803 21.9795 20.3011C22.0966 20.2219 22.2314 20.1723 22.3722 20.1565C22.513 20.1407 22.6556 20.1592 22.7876 20.2105L22.905 20.268L28.995 23.7525C29.1163 23.8219 29.2189 23.9192 29.2941 24.0363C29.3693 24.1534 29.4148 24.2867 29.4269 24.425C29.439 24.5633 29.4173 24.7025 29.3636 24.8306C29.3098 24.9588 29.2257 25.0722 29.1183 25.1613L28.995 25.2475L22.905 28.7334C22.7823 28.8039 22.644 28.8435 22.5023 28.8489C22.3606 28.8543 22.2197 28.8253 22.0919 28.7643C21.9641 28.7034 21.8533 28.6124 21.7691 28.4993C21.6848 28.3862 21.6298 28.2543 21.6087 28.1153L21.6 27.9859V21.0141Z" fill="white"/>
<defs>
<linearGradient id="paint0_linear_1_239" x1="24" y1="0" x2="24.6154" y2="54.1538" gradientUnits="userSpaceOnUse">
<stop stop-color="#017DC3"/>
<stop offset="1" stop-color="#24DB6F"/>
</linearGradient>
</defs>
</svg>
