<svg width="269" height="36" viewBox="0 0 269 36" fill="none" xmlns="http://www.w3.org/2000/svg">
<path d="M33.7551 17.3358C33.7551 26.2671 26.5148 33.5073 17.5836 33.5073C8.65234 33.5073 1.41211 26.2671 1.41211 17.3358C1.41211 8.40454 8.65234 1.16431 17.5836 1.16431C26.5148 1.16431 33.7551 8.40454 33.7551 17.3358Z" stroke="url(#paint0_linear_1238_138)" stroke-width="2.32855"/>
<path d="M59.0369 6.89526H56.5517V19.2885C56.5517 20.7686 56.3087 22.0499 55.8227 23.1324C54.7844 25.4077 52.7741 26.5455 49.7918 26.5455C48.5325 26.5455 47.4722 26.3246 46.6106 25.8828C45.4619 25.3083 44.8875 24.5131 44.8875 23.4969C44.8875 23.276 44.9206 23.055 44.9869 22.8342C45.252 22.0609 45.8154 21.6743 46.6769 21.6743C47.2292 21.6743 47.682 21.7848 48.0355 22.0058C48.4773 22.315 48.7755 22.9888 48.9302 24.027C48.9744 24.2922 49.0076 24.491 49.0296 24.6235C49.2063 25.3305 49.5819 25.6839 50.1563 25.6839C50.5097 25.6839 50.819 25.5513 51.0841 25.2863C51.6364 24.6677 51.9125 22.7347 51.9125 19.4873V6.89526H48.9302V6.00056H59.0369V6.89526ZM72.3911 26.2141C70.6238 26.1036 69.5082 25.0985 69.0444 23.1986C68.9339 23.5079 68.7903 23.8062 68.6135 24.0933C67.7299 25.5072 66.3492 26.2141 64.4715 26.2141C63.8528 26.2141 63.2896 26.1367 62.7814 25.9822C61.0583 25.4299 60.1968 24.1707 60.1968 22.2046C60.2188 19.3105 63.0686 17.8084 68.7461 17.6979V15.544C68.7461 14.9033 68.7019 14.351 68.6135 13.8872C68.3927 12.628 67.7631 11.9983 66.7248 11.9983C66.4155 11.9983 66.1393 12.0536 65.8963 12.164C65.5207 12.3849 65.2115 12.9372 64.9685 13.8209C64.8801 14.1302 64.8139 14.351 64.7697 14.4836C64.4383 15.4115 63.7976 15.8753 62.8477 15.8753C62.6268 15.8753 62.4169 15.8422 62.2182 15.7759C61.4007 15.5551 60.992 15.0138 60.992 14.1523C60.992 13.7767 61.0914 13.4232 61.2902 13.0919C62.0635 11.7885 63.9523 11.1368 66.9567 11.1368C67.7299 11.1368 68.4479 11.2141 69.1106 11.3687C71.6732 12.0094 72.9545 13.7105 72.9545 16.4718V23.3974C72.9545 24.4579 73.1975 25.0101 73.6835 25.0544C74.3241 25.0322 74.7107 24.2591 74.8433 22.7347L75.7049 22.7679C75.6386 23.4527 75.5391 24.0161 75.4066 24.4579C75.009 25.6287 74.0039 26.2141 72.3911 26.2141ZM66.1946 24.7892C66.3492 24.7892 66.5259 24.7561 66.7248 24.6898C67.6526 24.3363 68.3263 23.3864 68.7461 21.84V18.6257C67.752 18.67 66.9346 18.7914 66.294 18.9903C65.101 19.4321 64.5046 20.382 64.5046 21.84C64.5267 23.762 65.09 24.7451 66.1946 24.7892ZM81.5038 16.7369C81.5038 18.2613 81.5811 19.3216 81.7358 19.9181C82.0009 20.9342 82.6747 21.4424 83.7571 21.4424C84.4198 21.4424 84.939 21.2546 85.3146 20.8791C85.8447 20.2826 86.1099 18.8687 86.1099 16.6375C86.1099 15.1795 86.0326 14.1412 85.8779 13.5226C85.5907 12.5065 84.8949 11.9983 83.7902 11.9983C83.1054 11.9983 82.5863 12.1971 82.2328 12.5948C81.7468 13.1692 81.5038 14.5499 81.5038 16.7369ZM83.9229 11.1368C85.4692 11.1368 86.7726 11.4681 87.833 12.1309C87.9213 11.8879 88.0207 11.6449 88.1312 11.4019C88.7719 10.0764 89.6666 9.41367 90.8157 9.41367C91.235 9.41367 91.6218 9.49095 91.9754 9.6456C92.7482 9.97704 93.1351 10.5403 93.1351 11.3356C93.1351 11.4461 93.1243 11.5565 93.1018 11.667C92.947 12.2856 92.5386 12.5948 91.8755 12.5948C91.5886 12.5948 91.2791 12.4623 90.948 12.1971C90.5278 11.8216 90.1743 11.6339 89.8875 11.6339C89.3573 11.6559 88.8933 11.9763 88.4957 12.5948C89.6886 13.6331 90.2957 14.9586 90.3182 16.5712C90.3182 17.7642 89.9648 18.8467 89.2579 19.8187C88.0207 21.4755 86.1871 22.304 83.7571 22.304L80.2115 22.2708C80.1231 22.2708 80.0348 22.2819 79.9464 22.304C79.3941 22.3702 79.1179 22.6574 79.1179 23.1655C79.1179 23.2318 79.129 23.298 79.1511 23.3643C79.2615 23.8503 79.604 24.1044 80.1784 24.1264L87.0377 24.2591C87.347 24.2591 87.6452 24.2811 87.9324 24.3253C90.3623 24.6346 91.5778 25.9048 91.5778 28.1361C91.5778 28.7104 91.4122 29.2627 91.0802 29.7929C90.0204 31.4939 87.6783 32.3444 84.0554 32.3444C82.5531 32.3444 81.2719 32.1456 80.2115 31.748C78.643 31.1515 77.8588 30.2569 77.8588 29.0639C77.8588 28.4011 78.1459 27.7274 78.7204 27.0425C77.9251 26.3798 77.5163 25.5182 77.4942 24.4579C77.4942 24.0161 77.5826 23.5742 77.7593 23.1324C78.2675 21.9615 79.1732 21.3871 80.4766 21.4093H80.5097C80.2004 21.2325 79.9022 21.0337 79.615 20.8128C78.0686 19.6198 77.2955 18.2281 77.2955 16.6375C77.2955 15.5109 77.6268 14.4947 78.2895 13.5889C79.4825 11.9541 81.3603 11.1368 83.9229 11.1368ZM84.0554 31.4497C85.0937 31.4497 86.0435 31.3614 86.9052 31.1847C88.9596 30.787 89.9871 30.069 89.9871 29.0308C89.9871 28.8098 89.9427 28.6221 89.8544 28.4674C89.6334 28.0698 88.8824 27.8709 87.601 27.8709L80.9074 27.8047C80.4214 27.8047 79.9574 27.7163 79.5156 27.5396C79.1842 28.0035 79.0185 28.4674 79.0185 28.9314C79.0185 29.1744 79.0737 29.4174 79.1842 29.6604C79.7365 30.8532 81.3603 31.4497 84.0554 31.4497ZM105.495 26.2141C103.728 26.1036 102.612 25.0985 102.148 23.1986C102.037 23.5079 101.894 23.8062 101.717 24.0933C100.834 25.5072 99.4534 26.2141 97.5749 26.2141C96.9569 26.2141 96.3937 26.1367 95.8854 25.9822C94.1625 25.4299 93.3006 24.1707 93.3006 22.2046C93.3231 19.3105 96.1723 17.8084 101.85 17.6979V15.544C101.85 14.9033 101.806 14.351 101.717 13.8872C101.497 12.628 100.867 11.9983 99.8286 11.9983C99.5191 11.9983 99.2429 12.0536 99 12.164C98.6248 12.3849 98.3154 12.9372 98.0724 13.8209C97.9843 14.1302 97.9177 14.351 97.8736 14.4836C97.5425 15.4115 96.9011 15.8753 95.9519 15.8753C95.7306 15.8753 95.521 15.8422 95.3222 15.7759C94.5044 15.5551 94.0959 15.0138 94.0959 14.1523C94.0959 13.7767 94.1949 13.4232 94.3937 13.0919C95.1674 11.7885 97.0558 11.1368 100.061 11.1368C100.834 11.1368 101.551 11.2141 102.214 11.3687C104.777 12.0094 106.058 13.7105 106.058 16.4718V23.3974C106.058 24.4579 106.302 25.0101 106.787 25.0544C107.428 25.0322 107.815 24.2591 107.947 22.7347L108.809 22.7679C108.742 23.4527 108.643 24.0161 108.51 24.4579C108.113 25.6287 107.108 26.2141 105.495 26.2141ZM99.2987 24.7892C99.4534 24.7892 99.6298 24.7561 99.8286 24.6898C100.756 24.3363 101.43 23.3864 101.85 21.84V18.6257C100.856 18.67 100.038 18.7914 99.3976 18.9903C98.2047 19.4321 97.6082 20.382 97.6082 21.84C97.6307 23.762 98.1939 24.7451 99.2987 24.7892ZM115.469 25.2863C116.949 25.2863 117.799 24.7561 118.021 23.6957C118.043 23.541 118.054 23.3974 118.054 23.2649C118.054 22.1383 117.347 21.1994 115.934 20.4482C115.624 20.2716 115.127 20.0396 114.442 19.7524C112.785 19.0234 111.692 18.3496 111.162 17.7311C110.587 17.0683 110.3 16.2841 110.3 15.3784C110.3 13.5006 111.327 12.2303 113.381 11.5676C114.243 11.2804 115.204 11.1368 116.265 11.1368C117.987 11.1368 119.335 11.4461 120.307 12.0646C120.307 11.4019 120.506 11.0374 120.903 10.9711C120.992 10.949 121.08 10.938 121.169 10.938V15.0801H120.108C120.02 13.0698 118.927 12.0536 116.828 12.0315C115.414 12.0315 114.542 12.4954 114.21 13.4232C114.144 13.6442 114.111 13.865 114.111 14.086C114.111 15.036 114.773 15.8422 116.099 16.505C116.364 16.6596 116.806 16.8695 117.424 17.1346C119.147 17.9078 120.296 18.6147 120.871 19.2554C121.533 20.0064 121.865 20.9011 121.865 21.9394C121.865 23.8614 120.871 25.1537 118.883 25.8165C118.065 26.0816 117.148 26.2141 116.132 26.2141C114.188 26.2141 112.553 25.8717 111.227 25.1869C111.227 25.7612 111.084 26.0926 110.797 26.181C110.664 26.2031 110.509 26.2141 110.333 26.2141V21.1772H111.459C111.504 23.8945 112.84 25.2642 115.469 25.2863ZM129.354 25.2863C130.834 25.2863 131.684 24.7561 131.905 23.6957C131.927 23.541 131.939 23.3974 131.939 23.2649C131.939 22.1383 131.231 21.1994 129.817 20.4482C129.509 20.2716 129.011 20.0396 128.326 19.7524C126.669 19.0234 125.576 18.3496 125.046 17.7311C124.471 17.0683 124.184 16.2841 124.184 15.3784C124.184 13.5006 125.212 12.2303 127.266 11.5676C128.128 11.2804 129.088 11.1368 130.149 11.1368C131.872 11.1368 133.22 11.4461 134.191 12.0646C134.191 11.4019 134.39 11.0374 134.788 10.9711C134.877 10.949 134.965 10.938 135.053 10.938V15.0801H133.992C133.904 13.0698 132.811 12.0536 130.712 12.0315C129.298 12.0315 128.425 12.4954 128.094 13.4232C128.028 13.6442 127.995 13.865 127.995 14.086C127.995 15.036 128.657 15.8422 129.984 16.505C130.248 16.6596 130.69 16.8695 131.309 17.1346C133.032 17.9078 134.181 18.6147 134.755 19.2554C135.418 20.0064 135.749 20.9011 135.749 21.9394C135.749 23.8614 134.755 25.1537 132.767 25.8165C131.949 26.0816 131.033 26.2141 130.016 26.2141C128.073 26.2141 126.437 25.8717 125.112 25.1869C125.112 25.7612 124.969 26.0926 124.681 26.181C124.549 26.2031 124.394 26.2141 124.218 26.2141V21.1772H125.344C125.388 23.8945 126.725 25.2642 129.354 25.2863ZM149.6 26.2141C147.833 26.1036 146.717 25.0985 146.253 23.1986C146.143 23.5079 145.999 23.8062 145.823 24.0933C144.939 25.5072 143.559 26.2141 141.68 26.2141C141.062 26.2141 140.499 26.1367 139.991 25.9822C138.268 25.4299 137.406 24.1707 137.406 22.2046C137.428 19.3105 140.278 17.8084 145.955 17.6979V15.544C145.955 14.9033 145.911 14.351 145.823 13.8872C145.602 12.628 144.972 11.9983 143.934 11.9983C143.624 11.9983 143.348 12.0536 143.105 12.164C142.73 12.3849 142.421 12.9372 142.178 13.8209C142.089 14.1302 142.023 14.351 141.979 14.4836C141.648 15.4115 141.007 15.8753 140.057 15.8753C139.836 15.8753 139.626 15.8422 139.427 15.7759C138.61 15.5551 138.201 15.0138 138.201 14.1523C138.201 13.7767 138.301 13.4232 138.5 13.0919C139.273 11.7885 141.161 11.1368 144.166 11.1368C144.939 11.1368 145.657 11.2141 146.32 11.3687C148.882 12.0094 150.164 13.7105 150.164 16.4718V23.3974C150.164 24.4579 150.407 25.0101 150.893 25.0544C151.533 25.0322 151.92 24.2591 152.052 22.7347L152.914 22.7679C152.848 23.4527 152.749 24.0161 152.616 24.4579C152.218 25.6287 151.213 26.2141 149.6 26.2141ZM143.404 24.7892C143.559 24.7892 143.735 24.7561 143.934 24.6898C144.861 24.3363 145.535 23.3864 145.955 21.84V18.6257C144.961 18.67 144.143 18.7914 143.503 18.9903C142.31 19.4321 141.713 20.382 141.713 21.84C141.736 23.762 142.299 24.7451 143.404 24.7892ZM162.325 25.0212C162.457 25.0212 162.578 25.0322 162.689 25.0544C162.976 25.0985 163.12 25.3746 163.12 25.8828H153.742V25.0212C154.03 25.0212 154.284 24.9991 154.505 24.9549C155.278 24.8223 155.665 24.27 155.665 23.298V12.4954H153.742V11.6339H159.541L159.773 14.7156C160.016 14.0971 160.37 13.5226 160.834 12.9925C161.872 11.91 163.076 11.3687 164.445 11.3687C164.733 11.3687 165.009 11.4019 165.274 11.4681C166.356 11.7553 166.898 12.4512 166.898 13.5558C166.898 13.865 166.831 14.1633 166.699 14.4504C166.324 15.2899 165.694 15.7097 164.811 15.7097C164.545 15.7097 164.302 15.6765 164.081 15.6103C163.618 15.4335 163.187 14.9917 162.789 14.2848C162.502 13.7767 162.237 13.5226 161.994 13.5226C161.861 13.5226 161.717 13.5558 161.563 13.622C160.591 14.1302 160.027 15.544 159.873 17.8636V25.0212H162.325ZM186.349 16.7369H195.892V17.6317H193.738V25.8828L189.729 25.1869C188.271 25.8496 186.658 26.181 184.891 26.181C182.66 26.181 180.682 25.6398 178.96 24.5573C176.109 22.7237 174.685 19.8297 174.685 15.8753C174.685 12.8047 175.59 10.3415 177.402 8.48584C179.302 6.60807 181.766 5.66919 184.792 5.66919C186.471 5.66919 188.072 5.98952 189.596 6.63017L192.712 6.00056L192.844 13.0256H191.817C191.817 13.0035 191.817 12.9814 191.817 12.9593C190.977 8.78407 188.978 6.69644 185.819 6.69644C185.554 6.69644 185.289 6.70748 185.023 6.72957C181.555 7.10513 179.821 10.1979 179.821 16.0079C179.821 17.9519 179.998 19.5867 180.351 20.9122C181.124 23.7399 182.859 25.1537 185.554 25.1537C186.946 25.1537 188.15 24.7561 189.165 23.9608V17.6317H186.349V16.7369ZM205.8 25.0212C205.933 25.0212 206.055 25.0322 206.165 25.0544C206.452 25.0985 206.595 25.3746 206.595 25.8828H197.218V25.0212C197.505 25.0212 197.759 24.9991 197.98 24.9549C198.753 24.8223 199.14 24.27 199.14 23.298V12.4954H197.218V11.6339H203.017L203.249 14.7156C203.492 14.0971 203.845 13.5226 204.309 12.9925C205.348 11.91 206.551 11.3687 207.922 11.3687C208.209 11.3687 208.485 11.4019 208.749 11.4681C209.832 11.7553 210.373 12.4512 210.373 13.5558C210.373 13.865 210.308 14.1633 210.174 14.4504C209.799 15.2899 209.169 15.7097 208.286 15.7097C208.021 15.7097 207.778 15.6765 207.557 15.6103C207.093 15.4335 206.662 14.9917 206.264 14.2848C205.977 13.7767 205.712 13.5226 205.469 13.5226C205.337 13.5226 205.193 13.5558 205.038 13.622C204.067 14.1302 203.503 15.544 203.349 17.8636V25.0212H205.8ZM216.073 18.692C216.073 20.7686 216.206 22.2819 216.47 23.2318C216.868 24.6456 217.752 25.3525 219.122 25.3525C219.894 25.3525 220.524 25.1206 221.011 24.6567C221.85 23.8172 222.269 21.7848 222.269 18.5595C222.269 16.5492 222.137 15.0801 221.872 14.1523C221.474 12.7163 220.568 11.9983 219.155 11.9983C218.315 11.9983 217.663 12.2524 217.2 12.7605C216.449 13.622 216.073 15.5992 216.073 18.692ZM219.32 11.1368C221.22 11.1368 222.844 11.6559 224.191 12.6942C225.936 14.086 226.809 16.0189 226.809 18.4932C226.809 20.3488 226.257 21.9836 225.153 23.3974C223.672 25.2752 221.629 26.2141 219.023 26.2141C217.122 26.2141 215.488 25.6398 214.118 24.491C212.395 23.033 211.533 21.0558 211.533 18.5595C211.533 16.7922 212.041 15.2458 213.058 13.9203C214.515 12.0646 216.603 11.1368 219.32 11.1368ZM244.968 25.0212C245.123 25.0212 245.256 25.0322 245.366 25.0544C245.631 25.1206 245.763 25.3968 245.763 25.8828H239.865L239.7 23.1655C239.633 23.298 239.567 23.4306 239.501 23.5632C238.463 25.3305 236.949 26.2141 234.961 26.2141C231.846 26.192 230.267 24.3916 230.223 20.8128V12.4954H228.301V11.6339H234.431V21.3761C234.431 21.6854 234.453 21.9836 234.497 22.2708C234.718 23.7509 235.458 24.491 236.717 24.491C237.048 24.491 237.38 24.4137 237.711 24.2591C238.816 23.7067 239.446 22.569 239.601 20.8459L239.633 12.4954H238.01V11.6339H243.842V25.0212H244.968ZM253.186 31.3172H254.876C255.009 31.3172 255.141 31.3283 255.274 31.3503C255.562 31.3945 255.705 31.6707 255.705 32.1787H247.089V31.3172C247.376 31.3172 247.642 31.2951 247.885 31.2509C248.613 31.0962 248.978 30.544 248.978 29.5941V12.4954H247.089V11.6339H252.954L253.12 14.815C253.341 14.1965 253.672 13.622 254.114 13.0919C255.219 11.7885 256.655 11.1368 258.422 11.1368C259.593 11.1368 260.631 11.4792 261.537 12.164C263.216 13.4232 264.055 15.4556 264.055 18.2613C264.055 20.4262 263.503 22.2377 262.398 23.6957C261.073 25.3746 259.317 26.2141 257.13 26.2141C255.363 26.1699 254.048 25.6618 253.186 24.6898V31.3172ZM256.665 12.7274C256.047 12.7274 255.473 12.9814 254.943 13.4895C253.75 14.6603 253.153 16.6265 253.153 19.3879C253.153 20.868 253.352 22.1161 253.75 23.1324C254.346 24.5904 255.241 25.3194 256.433 25.3194C258.467 25.2974 259.493 23.1103 259.516 18.7583C259.516 14.7819 258.566 12.7716 256.665 12.7274Z" fill="white"/>
<defs>
<linearGradient id="paint0_linear_1238_138" x1="3.1527" y1="3.58451" x2="28.5847" y2="32.6496" gradientUnits="userSpaceOnUse">
<stop stop-color="#23D971"/>
<stop offset="0.460076" stop-color="#078CB5"/>
<stop offset="0.86136" stop-color="#BE14CD"/>
</linearGradient>
</defs>
</svg>
